name ./resultDataOpenSim/trcMotMarkerGrf/sub09/grf-04-01.mot
datacolumns 19
datarows 20
range 1.01200000 1.08800000
endheader

                time	     ground_force_vx	     ground_force_vy	     ground_force_vz	     ground_force_px	     ground_force_py	     ground_force_pz	   l_ground_force_vx	   l_ground_force_vy	   l_ground_force_vz	   l_ground_force_px	   l_ground_force_py	   l_ground_force_pz	     ground_torque_x	     ground_torque_y	     ground_torque_z	   l_ground_torque_x	   l_ground_torque_y	   l_ground_torque_z	
          1.01200000	          0.00000000	          0.00000000	          0.00000000	          0.00000000	          0.00000000	          0.00000000	         24.14293287	        403.26643752	         10.96564966	          0.19803721	         -0.07500000	          0.03762574	          0.00000000	          0.00000000	          0.00000000	          0.00000000	         -4.46112413	          0.00000000	
          1.01600000	          0.00000000	          0.00000000	          0.00000000	          0.00000000	          0.00000000	          0.00000000	         28.76988417	        407.19225449	          9.77620076	          0.19866461	         -0.07500000	          0.03805525	          0.00000000	          0.00000000	          0.00000000	          0.00000000	         -4.85376768	          0.00000000	
          1.02000000	          0.00000000	          0.00000000	          0.00000000	          0.00000000	          0.00000000	          0.00000000	         33.54109608	        412.34151307	          8.67705767	          0.19930009	         -0.07500000	          0.03848997	          0.00000000	          0.00000000	          0.00000000	          0.00000000	         -5.24320461	          0.00000000	
          1.02400000	          0.00000000	          0.00000000	          0.00000000	          0.00000000	          0.00000000	          0.00000000	         38.34474291	        418.83091897	          7.70297277	          0.19990899	         -0.07500000	          0.03888963	          0.00000000	          0.00000000	          0.00000000	          0.00000000	         -5.62043252	          0.00000000	
          1.02800000	          0.00000000	          0.00000000	          0.00000000	          0.00000000	          0.00000000	          0.00000000	         43.05511265	        426.70005551	          6.85207046	          0.20044389	         -0.07500000	          0.03921791	          0.00000000	          0.00000000	          0.00000000	          0.00000000	         -5.97738178	          0.00000000	
          1.03200000	          0.00000000	          0.00000000	          0.00000000	          0.00000000	          0.00000000	          0.00000000	         47.55961422	        435.96226868	          6.09227029	          0.20087511	         -0.07500000	          0.03945562	          0.00000000	          0.00000000	          0.00000000	          0.00000000	         -6.30742387	          0.00000000	
          1.03600000	          0.00000000	          0.00000000	          0.00000000	          0.00000000	          0.00000000	          0.00000000	         51.77865406	        446.61540013	          5.38527262	          0.20118001	         -0.07500000	          0.03960658	          0.00000000	          0.00000000	          0.00000000	          0.00000000	         -6.60555072	          0.00000000	
          1.04000000	          0.00000000	          0.00000000	          0.00000000	          0.00000000	          0.00000000	          0.00000000	         55.66513159	        458.60024881	          4.71875784	          0.20134981	         -0.07500000	          0.03969766	          0.00000000	          0.00000000	          0.00000000	          0.00000000	         -6.86835558	          0.00000000	
          1.04400000	          0.00000000	          0.00000000	          0.00000000	          0.00000000	          0.00000000	          0.00000000	         59.19890118	        471.80201121	          4.11799394	          0.20140800	         -0.07500000	          0.03977214	          0.00000000	          0.00000000	          0.00000000	          0.00000000	         -7.09396783	          0.00000000	
          1.04800000	          0.00000000	          0.00000000	          0.00000000	          0.00000000	          0.00000000	          0.00000000	         62.39414066	        486.10583696	          3.63142760	          0.20139237	         -0.07500000	          0.03987529	          0.00000000	          0.00000000	          0.00000000	          0.00000000	         -7.28200761	          0.00000000	
          1.05200000	          0.00000000	          0.00000000	          0.00000000	          0.00000000	          0.00000000	          0.00000000	         65.31541194	        501.41360633	          3.30808194	          0.20133649	         -0.07500000	          0.04002557	          0.00000000	          0.00000000	          0.00000000	          0.00000000	         -7.43356469	          0.00000000	
          1.05600000	          0.00000000	          0.00000000	          0.00000000	          0.00000000	          0.00000000	          0.00000000	         68.07703648	        517.61778163	          3.17931707	          0.20126171	         -0.07500000	          0.04020275	          0.00000000	          0.00000000	          0.00000000	          0.00000000	         -7.55118444	          0.00000000	
          1.06000000	          0.00000000	          0.00000000	          0.00000000	          0.00000000	          0.00000000	          0.00000000	         70.81564860	        534.56685922	          3.24994494	          0.20118122	         -0.07500000	          0.04037225	          0.00000000	          0.00000000	          0.00000000	          0.00000000	         -7.63877252	          0.00000000	
          1.06400000	          0.00000000	          0.00000000	          0.00000000	          0.00000000	          0.00000000	          0.00000000	         73.65956332	        552.01434339	          3.50066878	          0.20112473	         -0.07500000	          0.04051732	          0.00000000	          0.00000000	          0.00000000	          0.00000000	         -7.70124981	          0.00000000	
          1.06800000	          0.00000000	          0.00000000	          0.00000000	          0.00000000	          0.00000000	          0.00000000	         76.71915718	        569.61063461	          3.89684260	          0.20114286	         -0.07500000	          0.04064246	          0.00000000	          0.00000000	          0.00000000	          0.00000000	         -7.74383645	          0.00000000	
          1.07200000	          0.00000000	          0.00000000	          0.00000000	          0.00000000	          0.00000000	          0.00000000	         80.09242586	        586.99635620	          4.39530345	          0.20126638	         -0.07500000	          0.04075147	          0.00000000	          0.00000000	          0.00000000	          0.00000000	         -7.77103229	          0.00000000	
          1.07600000	          0.00000000	          0.00000000	          0.00000000	          0.00000000	          0.00000000	          0.00000000	         83.86910877	        603.91817623	          4.95460016	          0.20147473	         -0.07500000	          0.04083688	          0.00000000	          0.00000000	          0.00000000	          0.00000000	         -7.78559071	          0.00000000	
          1.08000000	          0.00000000	          0.00000000	          0.00000000	          0.00000000	          0.00000000	          0.00000000	         88.12487823	        620.25471462	          5.55380298	          0.20171028	         -0.07500000	          0.04088898	          0.00000000	          0.00000000	          0.00000000	          0.00000000	         -7.78794329	          0.00000000	
          1.08400000	          0.00000000	          0.00000000	          0.00000000	          0.00000000	          0.00000000	          0.00000000	         92.90054477	        635.95078461	          6.19940413	          0.20191920	         -0.07500000	          0.04090330	          0.00000000	          0.00000000	          0.00000000	          0.00000000	         -7.77644353	          0.00000000	
          1.08800000	          0.00000000	          0.00000000	          0.00000000	          0.00000000	          0.00000000	          0.00000000	         98.17944580	        650.94802953	          6.90326720	          0.20207512	         -0.07500000	          0.04088588	          0.00000000	          0.00000000	          0.00000000	          0.00000000	         -7.74835758	          0.00000000	
